<svg width="160" height="160" viewBox="0 0 160 160" fill="none" xmlns="http://www.w3.org/2000/svg"><g clip-path="url(#clip0)"><path d="M70.946 129.288a9.834 9.834 0 009.054.936V160h40.976a39.013 39.013 0 0027.594-11.43A39.025 39.025 0 00160 120.976V80H80v29.776a10.18 10.18 0 00-3.63-.703 10.894 10.894 0 00-10.81 12.41 11.164 11.164 0 005.386 7.805z" fill="#D26042"/><path d="M120.976 0H80v80h29.776a9.835 9.835 0 00.936 9.054 11.162 11.162 0 007.805 5.385 10.885 10.885 0 0011.438-6.284 10.9 10.9 0 00.972-4.526 10.18 10.18 0 00-.703-3.629H160V39.024A39.016 39.016 0 00135.91 2.97 39.029 39.029 0 00120.976 0z" fill="#4BA997"/><path d="M89.054 30.712A9.834 9.834 0 0080 29.776V0H39.024A39.024 39.024 0 000 39.024V80h80V50.224c1.157.454 2.387.692 3.63.703a10.886 10.886 0 0010.809-12.41 11.159 11.159 0 00-5.385-7.805z" fill="#F3BA4B"/><path d="M76.37 130.927a10.894 10.894 0 01-10.81-12.41 11.158 11.158 0 015.386-7.805 9.835 9.835 0 019.054-.936V80H50.224a9.834 9.834 0 00-.936-9.054 11.16 11.16 0 00-7.805-5.385 10.887 10.887 0 00-12.41 10.81c.011 1.242.25 2.472.703 3.629H0v40.976a39.029 39.029 0 0011.43 27.594A39.026 39.026 0 0039.024 160H80v-29.776a10.18 10.18 0 01-3.63.703z" fill="#3B88CB"/></g><path d="M35.996 101.974c0-.279.066-.521.198-.726a.63.63 0 01.572-.33h9.13c.25 0 .44.103.572.308.132.205.198.447.198.726 0 .308-.073.572-.22.792a.621.621 0 01-.55.308h-3.388v13.178c0 .235-.117.425-.352.572a1.632 1.632 0 01-.813.198c-.323 0-.602-.066-.837-.198-.22-.147-.33-.337-.33-.572v-13.178h-3.41a.674.674 0 01-.572-.308 1.469 1.469 0 01-.198-.77zm11.99 10.252v-6.402c0-1.687.448-2.926 1.343-3.718.894-.792 2.09-1.188 3.585-1.188 1.496 0 2.692.396 3.587 1.188.909.792 1.364 2.031 1.364 3.718v6.402c0 1.687-.455 2.926-1.364 3.718-.895.792-2.09 1.188-3.587 1.188-1.495 0-2.69-.396-3.586-1.188-.894-.792-1.342-2.031-1.342-3.718zm2.333 0c0 1.892.865 2.838 2.595 2.838.837 0 1.482-.235 1.936-.704.455-.469.682-1.181.682-2.134v-6.402c0-.953-.227-1.665-.681-2.134-.455-.469-1.1-.704-1.937-.704-1.73 0-2.596.946-2.596 2.838v6.402zm8.859-10.34c0-.264.16-.491.484-.682.322-.191.652-.286.99-.286.322 0 .579.176.77.528l3.63 6.974 3.608-6.974c.176-.352.432-.528.77-.528.337 0 .66.095.968.286.322.191.484.418.484.682a.735.735 0 01-.066.33l-4.554 8.206a.773.773 0 00-.044.242v5.566c0 .235-.118.425-.352.572a1.632 1.632 0 01-.814.198c-.323 0-.602-.066-.836-.198-.22-.147-.33-.337-.33-.572v-5.566c0-.029-.022-.11-.066-.242l-4.554-8.206a.74.74 0 01-.088-.33zM76.2 114.58c0-.279.103-.557.309-.836.205-.279.44-.418.703-.418.162 0 .353.095.573.286.234.176.462.374.681.594.22.205.55.403.99.594.455.176.961.264 1.519.264.835 0 1.503-.198 2.002-.594.513-.396.77-.975.77-1.738 0-.704-.25-1.291-.749-1.76-.483-.469-1.078-.843-1.781-1.122a49.903 49.903 0 01-2.09-.902 4.78 4.78 0 01-1.805-1.452c-.483-.645-.725-1.452-.725-2.42 0-.777.146-1.452.44-2.024a3.35 3.35 0 011.231-1.32 5.63 5.63 0 011.606-.66 7.221 7.221 0 011.805-.22c.395 0 .806.029 1.231.088.44.044.873.125 1.299.242.425.117.777.286 1.056.506.278.22.417.469.417.748s-.088.557-.264.836c-.175.279-.41.418-.703.418-.147 0-.345-.066-.594-.198-.25-.147-.587-.286-1.013-.418-.41-.147-.887-.22-1.43-.22-.835 0-1.503.169-2.002.506-.498.323-.748.821-.748 1.496 0 .44.132.821.397 1.144.264.308.6.565 1.012.77.425.205.894.411 1.408.616.513.191 1.019.418 1.517.682a7.13 7.13 0 011.386.924c.426.337.77.807 1.034 1.408.264.601.396 1.298.396 2.09 0 1.525-.461 2.691-1.385 3.498-.91.792-2.12 1.188-3.63 1.188-1.35 0-2.501-.279-3.454-.836-.94-.572-1.409-1.159-1.409-1.76zm12.072 1.65v-14.564c0-.249.11-.433.33-.55.235-.132.514-.198.836-.198.323 0 .594.066.814.198.235.117.352.301.352.55v6.072h5.478v-6.072c0-.249.11-.433.33-.55.235-.132.514-.198.836-.198.323 0 .594.066.814.198.235.117.352.301.352.55v14.564c0 .235-.117.425-.352.572-.22.132-.491.198-.814.198-.308 0-.579-.066-.814-.198-.234-.147-.352-.337-.352-.572v-6.644h-5.478v6.644c0 .235-.117.425-.352.572-.22.132-.491.198-.814.198-.308 0-.579-.066-.814-.198-.234-.147-.352-.337-.352-.572zm12.887-4.004v-6.402c0-1.687.448-2.926 1.342-3.718.895-.792 2.09-1.188 3.586-1.188s2.692.396 3.586 1.188c.91.792 1.364 2.031 1.364 3.718v6.402c0 1.687-.454 2.926-1.364 3.718-.894.792-2.09 1.188-3.586 1.188s-2.691-.396-3.586-1.188c-.894-.792-1.342-2.031-1.342-3.718zm2.332 0c0 1.892.866 2.838 2.596 2.838.836 0 1.482-.235 1.936-.704.455-.469.682-1.181.682-2.134v-6.402c0-.953-.227-1.665-.682-2.134-.454-.469-1.1-.704-1.936-.704-1.73 0-2.596.946-2.596 2.838v6.402zm10.283 4.004v-14.564c0-.205.081-.381.242-.528a.994.994 0 01.66-.22h4.29c1.467 0 2.633.389 3.498 1.166.88.777 1.32 2.002 1.32 3.674v.176c0 1.672-.454 2.904-1.364 3.696-.894.777-2.09 1.166-3.586 1.166h-2.728v5.434c0 .235-.117.425-.352.572-.22.132-.491.198-.814.198-.308 0-.579-.066-.814-.198-.234-.147-.352-.337-.352-.572zm2.332-7.282h2.728c.836 0 1.482-.235 1.936-.704.455-.484.682-1.203.682-2.156v-.264c0-.953-.227-1.665-.682-2.134-.454-.469-1.1-.704-1.936-.704h-2.728v5.962zM29.16 54.12V28.68c0-.613.267-1.08.8-1.4.533-.347 1.173-.52 1.92-.52h8.2c5.333 0 8 2.373 8 7.12 0 3.2-1.133 5.293-3.4 6.28 1.36.507 2.387 1.24 3.08 2.2.693.933 1.04 2.333 1.04 4.2v.84c0 2.987-.733 5.173-2.2 6.56-1.44 1.36-3.387 2.04-5.84 2.04h-8.88c-.827 0-1.493-.187-2-.56-.48-.373-.72-.813-.72-1.32zm6.2-3.56h4c2.133 0 3.2-1.227 3.2-3.68v-.64c0-2.453-1.067-3.68-3.2-3.68h-4v8zm0-12.8h4.2c.72 0 1.28-.267 1.68-.8.4-.56.6-1.213.6-1.96 0-.747-.2-1.4-.6-1.96-.4-.56-.96-.84-1.68-.84h-4.2v5.56zm16.69 15.68c0-.08.027-.227.08-.44l7.44-24.4c.214-.667.694-1.173 1.44-1.52.774-.373 1.654-.56 2.64-.56.987 0 1.854.187 2.6.56.774.347 1.267.853 1.48 1.52L75.21 53c.054.213.08.36.08.44 0 .693-.44 1.293-1.32 1.8-.853.507-1.746.76-2.68.76-1.146 0-1.826-.387-2.04-1.16l-1.36-5h-8.44l-1.36 5c-.213.773-.893 1.16-2.04 1.16-.933 0-1.84-.253-2.72-.76-.853-.507-1.28-1.107-1.28-1.8zm8.68-8.4h5.84l-2.92-10.72-2.92 10.72zm18.875 9.04v-25.4c0-.613.307-1.08.92-1.4.614-.347 1.347-.52 2.2-.52 1.2 0 2.08.173 2.64.52.587.347 1.24 1.213 1.96 2.6l6.48 12.36v-13.6c0-.613.307-1.08.92-1.4.614-.32 1.347-.48 2.2-.48.854 0 1.587.16 2.2.48.614.32.92.787.92 1.4v25.44c0 .613-.306 1.093-.92 1.44-.613.32-1.346.48-2.2.48-1.706 0-2.866-.56-3.48-1.68l-7.6-13.84v13.6c0 .613-.306 1.093-.92 1.44-.613.32-1.346.48-2.2.48-.853 0-1.586-.16-2.2-.48-.613-.347-.92-.827-.92-1.44zm30.648 6.68l-3.546-9.99c-1.088-3.065-1.053-5.596.106-7.592 1.184-2.005 3.128-3.464 5.831-4.377 2.779-.94 5.289-1.042 7.53-.308 2.266.726 3.814 2.257 4.644 4.594.384 1.08.419 1.9.107 2.455-.32.53-1.011.975-2.072 1.334-1.946.657-3.141.4-3.585-.773a8.543 8.543 0 00-.346-.854 4.205 4.205 0 00-.548-.828c-.252-.31-.526-.526-.825-.65-.299-.124-.702-.185-1.211-.182-.492-.03-1.041.056-1.647.261-2.274.769-2.964 2.41-2.072 4.922l3.546 9.99c.892 2.513 2.462 3.39 4.71 2.63 2.274-.769 2.965-2.41 2.073-4.923l-.455-1.281-2.236.755c-.556.188-1.074.124-1.554-.192-.463-.35-.807-.84-1.03-1.468a2.696 2.696 0 01-.056-1.712c.159-.588.504-.972 1.034-1.151l6.366-2.152c.556-.188 1.053-.144 1.49.13.453.241.769.613.947 1.115l1.405 3.958c1.089 3.066 1.041 5.601-.143 7.606-1.185 2.004-3.191 3.485-6.021 4.441-2.804.948-5.307.992-7.508.131-2.201-.86-3.845-2.823-4.934-5.89z" fill="#fff"/><defs><clipPath id="clip0"><path fill="#fff" d="M0 0h160v160H0z"/></clipPath></defs></svg>