<svg width="160" height="160" viewBox="0 0 160 160" fill="none" xmlns="http://www.w3.org/2000/svg">
<g clip-path="url(#clip0)">
<path d="M70.9463 129.288C72.2682 130.162 73.7818 130.704 75.3582 130.867C76.9346 131.03 78.527 130.809 79.9999 130.224V160H120.976C126.1 160 131.175 158.991 135.91 157.029C140.644 155.068 144.946 152.194 148.57 148.57C152.194 144.946 155.068 140.644 157.029 135.91C158.991 131.175 160 126.1 160 120.976V80H79.9999V109.776C78.8431 109.322 77.6131 109.084 76.3706 109.073C74.8098 109.069 73.2663 109.401 71.8448 110.045C70.4234 110.69 69.1571 111.633 68.1319 112.81C67.1067 113.986 66.3466 115.37 65.903 116.867C65.4594 118.363 65.3427 119.937 65.5609 121.483C65.8304 123.099 66.4527 124.637 67.3835 125.986C68.3142 127.335 69.5306 128.462 70.9463 129.288Z" fill="#D26042"/>
<path d="M120.976 0H80V80H109.776C109.191 81.4729 108.97 83.0653 109.133 84.6417C109.296 86.2181 109.838 87.7317 110.712 89.0537C111.538 90.4693 112.665 91.6857 114.014 92.6164C115.363 93.5472 116.901 94.1695 118.517 94.439C120.063 94.6572 121.637 94.5406 123.133 94.097C124.63 93.6534 126.013 92.8932 127.19 91.868C128.367 90.8428 129.31 89.5766 129.955 88.1551C130.599 86.7336 130.931 85.1901 130.927 83.6293C130.916 82.3868 130.678 81.1568 130.224 80H160V39.0244C160 33.8996 158.991 28.8251 157.029 24.0904C155.068 19.3557 152.194 15.0537 148.57 11.43C144.946 7.80623 140.644 4.93171 135.91 2.97055C131.175 1.0094 126.1 0 120.976 0V0Z" fill="#4BA997"/>
<path d="M89.0537 30.7122C87.7317 29.8381 86.2181 29.2965 84.6417 29.1334C83.0653 28.9703 81.4729 29.1907 80 29.7756V0H39.0244C28.6745 0 18.7485 4.11149 11.43 11.43C4.11149 18.7485 0 28.6745 0 39.0244L0 80H80V50.2244C81.1568 50.6779 82.3868 50.916 83.6293 50.9268C85.1901 50.931 86.7336 50.5995 88.1551 49.9548C89.5766 49.3101 90.8428 48.3674 91.868 47.1904C92.8932 46.0135 93.6534 44.6299 94.097 43.1334C94.5406 41.6369 94.6572 40.0626 94.439 38.5171C94.1695 36.9005 93.5472 35.3632 92.6164 34.0143C91.6857 32.6653 90.4693 31.538 89.0537 30.7122Z" fill="#F3BA4B"/>
<path d="M76.3707 130.927C74.8099 130.931 73.2664 130.599 71.8449 129.955C70.4235 129.31 69.1572 128.367 68.132 127.19C67.1068 126.013 66.3466 124.63 65.903 123.133C65.4594 121.637 65.3428 120.063 65.561 118.517C65.8305 116.9 66.4528 115.363 67.3836 114.014C68.3143 112.665 69.5307 111.538 70.9463 110.712C72.2683 109.838 73.7819 109.296 75.3583 109.133C76.9347 108.97 78.5271 109.191 80 109.776V79.9999H50.2244C50.8093 78.527 51.0297 76.9346 50.8666 75.3582C50.7035 73.7818 50.1619 72.2682 49.2878 70.9463C48.462 69.5306 47.3347 68.3142 45.9857 67.3835C44.6368 66.4527 43.0995 65.8304 41.4829 65.5609C39.9374 65.3427 38.3631 65.4594 36.8666 65.903C35.3701 66.3466 33.9865 67.1067 32.8096 68.1319C31.6326 69.1571 30.6899 70.4234 30.0452 71.8448C29.4005 73.2663 29.069 74.8098 29.0732 76.3706C29.084 77.6131 29.3221 78.8431 29.7756 79.9999H0V120.976C0 126.1 1.0094 131.175 2.97055 135.91C4.93171 140.644 7.80623 144.946 11.43 148.57C18.7485 155.888 28.6745 160 39.0244 160H80V130.224C78.8432 130.678 77.6132 130.916 76.3707 130.927Z" fill="#3B88CB"/>
</g>
<path d="M35.9965 101.974C35.9965 101.695 36.0625 101.453 36.1945 101.248C36.3265 101.028 36.5171 100.918 36.7665 100.918H45.8965C46.1458 100.918 46.3365 101.021 46.4685 101.226C46.6005 101.431 46.6665 101.673 46.6665 101.952C46.6665 102.26 46.5931 102.524 46.4465 102.744C46.3145 102.949 46.1311 103.052 45.8965 103.052H42.5085V116.23C42.5085 116.465 42.3911 116.655 42.1565 116.802C41.9218 116.934 41.6505 117 41.3425 117C41.0198 117 40.7411 116.934 40.5065 116.802C40.2865 116.655 40.1765 116.465 40.1765 116.23V103.052H36.7665C36.5318 103.052 36.3411 102.949 36.1945 102.744C36.0625 102.524 35.9965 102.267 35.9965 101.974ZM47.9865 112.226V105.824C47.9865 104.137 48.4338 102.898 49.3285 102.106C50.2231 101.314 51.4185 100.918 52.9145 100.918C54.4105 100.918 55.6058 101.314 56.5005 102.106C57.4098 102.898 57.8645 104.137 57.8645 105.824V112.226C57.8645 113.913 57.4098 115.152 56.5005 115.944C55.6058 116.736 54.4105 117.132 52.9145 117.132C51.4185 117.132 50.2231 116.736 49.3285 115.944C48.4338 115.152 47.9865 113.913 47.9865 112.226ZM50.3185 112.226C50.3185 114.118 51.1838 115.064 52.9145 115.064C53.7505 115.064 54.3958 114.829 54.8505 114.36C55.3051 113.891 55.5325 113.179 55.5325 112.226V105.824C55.5325 104.871 55.3051 104.159 54.8505 103.69C54.3958 103.221 53.7505 102.986 52.9145 102.986C51.1838 102.986 50.3185 103.932 50.3185 105.824V112.226ZM59.1776 101.886C59.1776 101.622 59.3389 101.395 59.6616 101.204C59.9843 101.013 60.3143 100.918 60.6516 100.918C60.9743 100.918 61.2309 101.094 61.4216 101.446L65.0516 108.42L68.6596 101.446C68.8356 101.094 69.0923 100.918 69.4296 100.918C69.7669 100.918 70.0896 101.013 70.3976 101.204C70.7203 101.395 70.8816 101.622 70.8816 101.886C70.8816 102.018 70.8596 102.128 70.8156 102.216L66.2616 110.422C66.2323 110.51 66.2176 110.591 66.2176 110.664V116.23C66.2176 116.465 66.1003 116.655 65.8656 116.802C65.6309 116.934 65.3596 117 65.0516 117C64.7289 117 64.4503 116.934 64.2156 116.802C63.9956 116.655 63.8856 116.465 63.8856 116.23V110.664C63.8856 110.635 63.8636 110.554 63.8196 110.422L59.2656 102.216C59.2069 102.099 59.1776 101.989 59.1776 101.886ZM76.2015 114.58C76.2015 114.301 76.3041 114.023 76.5095 113.744C76.7148 113.465 76.9495 113.326 77.2135 113.326C77.3748 113.326 77.5655 113.421 77.7855 113.612C78.0201 113.788 78.2475 113.986 78.4675 114.206C78.6875 114.411 79.0175 114.609 79.4575 114.8C79.9121 114.976 80.4181 115.064 80.9755 115.064C81.8115 115.064 82.4788 114.866 82.9775 114.47C83.4908 114.074 83.7475 113.495 83.7475 112.732C83.7475 112.028 83.4981 111.441 82.9995 110.972C82.5155 110.503 81.9215 110.129 81.2175 109.85C80.5281 109.571 79.8315 109.271 79.1275 108.948C78.4235 108.625 77.8221 108.141 77.3235 107.496C76.8395 106.851 76.5975 106.044 76.5975 105.076C76.5975 104.299 76.7441 103.624 77.0375 103.052C77.3455 102.48 77.7561 102.04 78.2695 101.732C78.7828 101.424 79.3181 101.204 79.8755 101.072C80.4475 100.925 81.0488 100.852 81.6795 100.852C82.0755 100.852 82.4861 100.881 82.9115 100.94C83.3515 100.984 83.7841 101.065 84.2095 101.182C84.6348 101.299 84.9868 101.468 85.2655 101.688C85.5441 101.908 85.6835 102.157 85.6835 102.436C85.6835 102.715 85.5955 102.993 85.4195 103.272C85.2435 103.551 85.0088 103.69 84.7155 103.69C84.5688 103.69 84.3708 103.624 84.1215 103.492C83.8721 103.345 83.5348 103.206 83.1095 103.074C82.6988 102.927 82.2221 102.854 81.6795 102.854C80.8435 102.854 80.1761 103.023 79.6775 103.36C79.1788 103.683 78.9295 104.181 78.9295 104.856C78.9295 105.296 79.0615 105.677 79.3255 106C79.5895 106.308 79.9268 106.565 80.3375 106.77C80.7628 106.975 81.2321 107.181 81.7455 107.386C82.2588 107.577 82.7648 107.804 83.2635 108.068C83.7768 108.332 84.2388 108.64 84.6495 108.992C85.0748 109.329 85.4195 109.799 85.6835 110.4C85.9475 111.001 86.0795 111.698 86.0795 112.49C86.0795 114.015 85.6175 115.181 84.6935 115.988C83.7841 116.78 82.5741 117.176 81.0635 117.176C79.7141 117.176 78.5628 116.897 77.6095 116.34C76.6708 115.768 76.2015 115.181 76.2015 114.58ZM88.2733 116.23V101.666C88.2733 101.417 88.3833 101.233 88.6033 101.116C88.838 100.984 89.1166 100.918 89.4393 100.918C89.762 100.918 90.0333 100.984 90.2533 101.116C90.488 101.233 90.6053 101.417 90.6053 101.666V107.738H96.0833V101.666C96.0833 101.417 96.1933 101.233 96.4133 101.116C96.648 100.984 96.9266 100.918 97.2493 100.918C97.572 100.918 97.8433 100.984 98.0633 101.116C98.298 101.233 98.4153 101.417 98.4153 101.666V116.23C98.4153 116.465 98.298 116.655 98.0633 116.802C97.8433 116.934 97.572 117 97.2493 117C96.9413 117 96.67 116.934 96.4353 116.802C96.2006 116.655 96.0833 116.465 96.0833 116.23V109.586H90.6053V116.23C90.6053 116.465 90.488 116.655 90.2533 116.802C90.0333 116.934 89.762 117 89.4393 117C89.1313 117 88.86 116.934 88.6253 116.802C88.3906 116.655 88.2733 116.465 88.2733 116.23ZM101.16 112.226V105.824C101.16 104.137 101.608 102.898 102.502 102.106C103.397 101.314 104.592 100.918 106.088 100.918C107.584 100.918 108.78 101.314 109.674 102.106C110.584 102.898 111.038 104.137 111.038 105.824V112.226C111.038 113.913 110.584 115.152 109.674 115.944C108.78 116.736 107.584 117.132 106.088 117.132C104.592 117.132 103.397 116.736 102.502 115.944C101.608 115.152 101.16 113.913 101.16 112.226ZM103.492 112.226C103.492 114.118 104.358 115.064 106.088 115.064C106.924 115.064 107.57 114.829 108.024 114.36C108.479 113.891 108.706 113.179 108.706 112.226V105.824C108.706 104.871 108.479 104.159 108.024 103.69C107.57 103.221 106.924 102.986 106.088 102.986C104.358 102.986 103.492 103.932 103.492 105.824V112.226ZM113.775 116.23V101.666C113.775 101.461 113.856 101.285 114.017 101.138C114.193 100.991 114.413 100.918 114.677 100.918H118.967C120.434 100.918 121.6 101.307 122.465 102.084C123.345 102.861 123.785 104.086 123.785 105.758V105.934C123.785 107.606 123.331 108.838 122.421 109.63C121.527 110.407 120.331 110.796 118.835 110.796H116.107V116.23C116.107 116.465 115.99 116.655 115.755 116.802C115.535 116.934 115.264 117 114.941 117C114.633 117 114.362 116.934 114.127 116.802C113.893 116.655 113.775 116.465 113.775 116.23ZM116.107 108.948H118.835C119.671 108.948 120.317 108.713 120.771 108.244C121.226 107.76 121.453 107.041 121.453 106.088V105.824C121.453 104.871 121.226 104.159 120.771 103.69C120.317 103.221 119.671 102.986 118.835 102.986H116.107V108.948Z" fill="white"/>
<path d="M29.16 54.12V28.68C29.16 28.0667 29.4267 27.6 29.96 27.28C30.4933 26.9333 31.1333 26.76 31.88 26.76H40.08C45.4133 26.76 48.08 29.1333 48.08 33.88C48.08 37.08 46.9467 39.1733 44.68 40.16C46.04 40.6667 47.0667 41.4 47.76 42.36C48.4533 43.2933 48.8 44.6933 48.8 46.56V47.4C48.8 50.3867 48.0667 52.5733 46.6 53.96C45.16 55.32 43.2133 56 40.76 56H31.88C31.0533 56 30.3867 55.8133 29.88 55.44C29.4 55.0667 29.16 54.6267 29.16 54.12ZM35.36 50.56H39.36C41.4933 50.56 42.56 49.3333 42.56 46.88V46.24C42.56 43.7867 41.4933 42.56 39.36 42.56H35.36V50.56ZM35.36 37.76H39.56C40.28 37.76 40.84 37.4933 41.24 36.96C41.64 36.4 41.84 35.7467 41.84 35C41.84 34.2533 41.64 33.6 41.24 33.04C40.84 32.48 40.28 32.2 39.56 32.2H35.36V37.76ZM52.0506 53.44C52.0506 53.36 52.0773 53.2133 52.1306 53L59.5706 28.6C59.784 27.9333 60.264 27.4267 61.0106 27.08C61.784 26.7067 62.664 26.52 63.6506 26.52C64.6373 26.52 65.504 26.7067 66.2506 27.08C67.024 27.4267 67.5173 27.9333 67.7306 28.6L75.2106 53C75.264 53.2133 75.2906 53.36 75.2906 53.44C75.2906 54.1333 74.8506 54.7333 73.9706 55.24C73.1173 55.7467 72.224 56 71.2906 56C70.144 56 69.464 55.6133 69.2506 54.84L67.8906 49.84H59.4506L58.0906 54.84C57.8773 55.6133 57.1973 56 56.0506 56C55.1173 56 54.2106 55.7467 53.3306 55.24C52.4773 54.7333 52.0506 54.1333 52.0506 53.44ZM60.7306 45.04H66.5706L63.6506 34.32L60.7306 45.04ZM79.6053 54.08V28.68C79.6053 28.0667 79.912 27.6 80.5253 27.28C81.1386 26.9333 81.872 26.76 82.7253 26.76C83.9253 26.76 84.8053 26.9333 85.3653 27.28C85.952 27.6267 86.6053 28.4933 87.3253 29.88L93.8053 42.24V28.64C93.8053 28.0267 94.112 27.56 94.7253 27.24C95.3386 26.92 96.072 26.76 96.9253 26.76C97.7786 26.76 98.512 26.92 99.1253 27.24C99.7386 27.56 100.045 28.0267 100.045 28.64V54.08C100.045 54.6933 99.7386 55.1733 99.1253 55.52C98.512 55.84 97.7786 56 96.9253 56C95.2186 56 94.0586 55.44 93.4453 54.32L85.8453 40.48V54.08C85.8453 54.6933 85.5386 55.1733 84.9253 55.52C84.312 55.84 83.5786 56 82.7253 56C81.872 56 81.1386 55.84 80.5253 55.52C79.912 55.1733 79.6053 54.6933 79.6053 54.08Z" fill="white"/>
<path d="M110.253 60.7597L106.707 50.7705C105.619 47.7046 105.654 45.1737 106.813 43.1777C107.997 41.1732 109.941 39.7142 112.644 38.8006C115.423 37.8614 117.933 37.7589 120.174 38.4931C122.44 39.2188 123.988 40.7502 124.818 43.0873C125.202 44.1679 125.237 44.9861 124.925 45.5419C124.605 46.0725 123.914 46.5171 122.853 46.8758C120.907 47.5332 119.712 47.2756 119.268 46.103C119.143 45.7512 119.028 45.4665 118.922 45.2489C118.808 45.0061 118.625 44.7301 118.374 44.421C118.122 44.1119 117.848 43.8952 117.549 43.771C117.25 43.6468 116.847 43.5862 116.338 43.5891C115.846 43.5583 115.297 43.6454 114.691 43.8503C112.417 44.6188 111.727 46.2595 112.619 48.7725L116.165 58.7618C117.057 61.2748 118.627 62.1514 120.875 61.3915C123.149 60.623 123.84 58.9823 122.948 56.4693L122.493 55.1876L120.257 55.9433C119.701 56.1311 119.183 56.0669 118.703 55.7507C118.24 55.4008 117.896 54.9117 117.673 54.2835C117.468 53.7055 117.449 53.1348 117.617 52.5715C117.776 51.983 118.121 51.5991 118.651 51.4198L125.017 49.2682C125.573 49.0803 126.07 49.1237 126.507 49.3982C126.96 49.639 127.276 50.0107 127.454 50.5133L128.859 54.4713C129.948 57.5372 129.9 60.0724 128.716 62.0769C127.531 64.0814 125.525 65.5617 122.695 66.518C119.891 67.4658 117.388 67.5095 115.187 66.6491C112.986 65.7888 111.342 63.8256 110.253 60.7597Z" fill="white"/>
<defs>
<clipPath id="clip0">
<rect width="160" height="160" fill="white"/>
</clipPath>
</defs>
</svg>
